<svg version="1.1" id="Capa_1" xmlns="http://www.w3.org/2000/svg" x="0" y="0" viewBox="0 0 489.3 489.3" style="enable-background:new 0 0 489.3 489.3" xml:space="preserve"><style>.st0{fill:#fff}</style><path class="st0" d="M.1 12.3 0 477c0 6.8 5.5 12.3 12.3 12.3h224c6.8 0 12.3-5.5 12.3-12.3s-5.5-12.3-12.3-12.3H24.4V24.5h440.2V235c0 6.7 5.6 12.2 12.3 12.2 6.7 0 12.2-5.4 12.2-12.2V12.2C489.1 5.5 483.8 0 477 0H12.3C5.6 0 .1 5.5.1 12.3z"/><path class="st0" d="M489.3 476.9h-.1V306.6c0-6.8-5.4-12.3-12.2-12.3H306.6c-6.8 0-12.3 5.5-12.3 12.3v170.3c0 6.8 5.5 12.3 12.3 12.3H477c6.8 0 12.3-5.5 12.3-12.3zm-24.5-12.2H318.9V318.8h145.9v145.9zM266.4 249 127.7 110.4h79.9c6.8 0 12.3-5.5 12.3-12.3s-5.5-12.3-12.3-12.3H98.1c-6.8 0-12.3 5.5-12.3 12.3v109.4c0 6.8 5.5 12.3 12.3 12.3s12.3-5.5 12.3-12.3v-79.9L249 266.3c2.4 2.4 5.5 3.6 8.7 3.6 3.2 0 6.3-1.2 8.7-3.6 4.7-4.8 4.7-12.5 0-17.3z"/></svg>