<?xml version="1.0" encoding="utf-8"?>
<!-- Generator: Adobe Illustrator 24.0.1, SVG Export Plug-In . SVG Version: 6.00 Build 0)  -->
<svg version="1.1" id="Capa_1" xmlns="http://www.w3.org/2000/svg" xmlns:xlink="http://www.w3.org/1999/xlink" x="0px" y="0px"
	 viewBox="0 0 489.3 489.3" style="enable-background:new 0 0 489.3 489.3;" xml:space="preserve">
<style type="text/css">
	.st0{fill:#FFFFFF;}
</style>
<g>
	<g>
		<path class="st0" d="M0.1,12.3L0,477c0,6.8,5.5,12.3,12.3,12.3h224c6.8,0,12.3-5.5,12.3-12.3s-5.5-12.3-12.3-12.3H24.4V24.5h440.2
			V235c0,6.7,5.6,12.2,12.3,12.2c6.7,0,12.2-5.4,12.2-12.2V12.2C489.1,5.5,483.8,0,477,0L12.3,0C5.6,0,0.1,5.5,0.1,12.3z"/>
		<path class="st0" d="M489.3,476.9h-0.1V306.6c0-6.8-5.4-12.3-12.2-12.3H306.6c-6.8,0-12.3,5.5-12.3,12.3v170.3
			c0,6.8,5.5,12.3,12.3,12.3H477C483.8,489.2,489.3,483.7,489.3,476.9L489.3,476.9z M464.8,464.7H318.9V318.8h145.9V464.7z"/>
		<path class="st0" d="M266.4,249L127.7,110.4h79.9c6.8,0,12.3-5.5,12.3-12.3s-5.5-12.3-12.3-12.3H98.1c-6.8,0-12.3,5.5-12.3,12.3
			v109.4c0,6.8,5.5,12.3,12.3,12.3s12.3-5.5,12.3-12.3v-79.9L249,266.3c2.4,2.4,5.5,3.6,8.7,3.6c3.2,0,6.3-1.2,8.7-3.6
			C271.1,261.5,271.1,253.8,266.4,249z"/>
	</g>
</g>
</svg>
